HIERARCHY
ROOT reference
{
  OFFSET 0 0 0
  CHANNELS 6 Xposition Yposition Zposition Zrotation Xrotation Yrotation
  JOINT Hips
  {
    OFFSET 96.5545 86.3089 -102.711
    CHANNELS 6 Xposition Yposition Zposition Zrotation Xrotation Yrotation
    JOINT Spine
    {
      OFFSET 0 8.12958 0
      CHANNELS 6 Xposition Yposition Zposition Zrotation Xrotation Yrotation
      JOINT Spine1
      {
        OFFSET 0 26.3907 0
        CHANNELS 6 Xposition Yposition Zposition Zrotation Xrotation Yrotation
        JOINT Neck
        {
          OFFSET 0 26.2823 2.3893
          CHANNELS 6 Xposition Yposition Zposition Zrotation Xrotation Yrotation
          JOINT Head
          {
            OFFSET 0 13.8798 -1.98282
            CHANNELS 6 Xposition Yposition Zposition Zrotation Xrotation Yrotation
            End Site
            {
              OFFSET 0 24.7853 0
            }
          }
        }
        JOINT LeftShoulder
        {
          OFFSET 3.97789 23.5745 -0.27352
          CHANNELS 6 Xposition Yposition Zposition Zrotation Xrotation Yrotation
          JOINT LeftArm
          {
            OFFSET 13.7626 0 0
            CHANNELS 6 Xposition Yposition Zposition Zrotation Xrotation Yrotation
            JOINT LeftForeArm
            {
              OFFSET 26.1014 0 0
              CHANNELS 6 Xposition Yposition Zposition Zrotation Xrotation Yrotation
              JOINT LeftHand
              {
                OFFSET 29.9599 0 0
                CHANNELS 6 Xposition Yposition Zposition Zrotation Xrotation Yrotation
                End Site
                {
                  OFFSET 14.8712 0 0
                }
              }
            }
          }
        }
        JOINT RightShoulder
        {
          OFFSET -3.9517 23.5745 -0.27352
          CHANNELS 6 Xposition Yposition Zposition Zrotation Xrotation Yrotation
          JOINT RightArm
          {
            OFFSET -13.7626 0 0
            CHANNELS 6 Xposition Yposition Zposition Zrotation Xrotation Yrotation
            JOINT RightForeArm
            {
              OFFSET -26.1014 0 0
              CHANNELS 6 Xposition Yposition Zposition Zrotation Xrotation Yrotation
              JOINT RightHand
              {
                OFFSET -29.9599 0 0
                CHANNELS 6 Xposition Yposition Zposition Zrotation Xrotation Yrotation
                End Site
                {
                  OFFSET -14.8712 0 0
                }
              }
            }
          }
        }
      }
    }
    JOINT LeftUpLeg
    {
      OFFSET 9.91412 0 0
      CHANNELS 6 Xposition Yposition Zposition Zrotation Xrotation Yrotation
      JOINT LeftLeg
      {
        OFFSET 0 -41.4279 0
        CHANNELS 6 Xposition Yposition Zposition Zrotation Xrotation Yrotation
        JOINT LeftFoot
        {
          OFFSET 0 -41.0254 0
          CHANNELS 6 Xposition Yposition Zposition Zrotation Xrotation Yrotation
          JOINT LeftToeBase
          {
            OFFSET 0 -6.44418 14.8712
            CHANNELS 6 Xposition Yposition Zposition Zrotation Xrotation Yrotation
            End Site
            {
              OFFSET 0 0 3.96565
            }
          }
        }
      }
    }
    JOINT RightUpLeg
    {
      OFFSET -9.91412 0 0
      CHANNELS 6 Xposition Yposition Zposition Zrotation Xrotation Yrotation
      JOINT RightLeg
      {
        OFFSET 0 -41.4279 0
        CHANNELS 6 Xposition Yposition Zposition Zrotation Xrotation Yrotation
        JOINT RightFoot
        {
          OFFSET 0 -41.0254 0
          CHANNELS 6 Xposition Yposition Zposition Zrotation Xrotation Yrotation
          JOINT RightToeBase
          {
            OFFSET 0 -6.44418 14.8712
            CHANNELS 6 Xposition Yposition Zposition Zrotation Xrotation Yrotation
            End Site
            {
              OFFSET 0 0 3.96565
            }
          }
        }
      }
    }
  }
}
MOTION
Frames:	9
Frame Time:	0.004
0 0 0 0 0 -0 -59.5324 85.1344 -91.68 1.38817 -1.01645 0.995848 7.10543e-015 8.12958 0 1.05816 8.92328 -3.32229 1.42109e-014 26.3907 0 -1.95047 0.916999 -3.22408 0 26.2823 2.3893 2.67955 17.1442 -1.55043 0 13.8798 -1.98282 -3.61997 4.80972 -1.95867 3.97789 23.5745 -0.27352 -2.91864 18.1869 5.84398 13.7626 0 0 -26.1952 12.8939 -2.91478 26.1014 0 0 -3.21485 12.0811 -6.45725 29.9599 7.10543e-015 0 -1.15685 11.8994 0.434509 -3.9517 23.5745 -0.27352 6.80619 14.2444 -3.81818 -13.7626 2.84217e-014 0 16.9084 7.58592 4.9239 -26.1014 -1.42109e-014 0 2.65087 13.3754 4.27527 -29.9599 0 0 -4.83229 13.0328 5.99186 9.91412 0 0 7.24097 -11.3739 10.8672 0 -41.4279 0 -11.5815 33.9628 1.1665 7.10543e-015 -41.0254 -1.42109e-014 -15.8374 -20.5798 -5.57396 0 -6.44418 14.8712 8.94531e-016 1.59028e-015 -3.18055e-015 -9.91412 1.42109e-014 0 -5.27323 -8.85825 -16.1674 -1.42109e-014 -41.4279 7.10543e-015 5.81965 23.4321 7.53931 0 -41.0254 -1.42109e-014 0.864963 -17.4319 -14.853 -1.42109e-014 -6.44418 14.8712 -8.82781e-032 -7.95139e-016 -6.36111e-015 
0 0 0 0 0 -0 -59.4345 85.0897 -91.7187 1.4465 -1.05398 0.972141 0 8.12958 1.42109e-014 1.02106 8.97455 -3.30901 0 26.3907 -1.42109e-014 -1.96141 1.00766 -3.21158 -1.42109e-014 26.2823 2.3893 2.69627 17.0806 -1.57579 1.42109e-014 13.8798 -1.98282 -3.61947 4.80327 -1.98668 3.97789 23.5745 -0.27352 -2.89843 18.1829 5.82566 13.7626 1.42109e-014 -2.84217e-014 -26.1316 12.8892 -2.92673 26.1014 -2.13163e-014 0 -3.22129 12.0959 -6.45774 29.9599 -7.10543e-015 0 -1.25804 11.9121 0.557304 -3.9517 23.5745 -0.27352 6.80116 14.1935 -3.78986 -13.7626 0 0 16.9293 8.60179 4.8391 -26.1014 0 0 2.29749 12.8752 4.47501 -29.9599 2.84217e-014 0 -4.71668 12.5505 5.89887 9.91412 0 1.42109e-014 7.5706 -11.512 11.2234 -1.06581e-014 -41.4279 -1.42109e-014 -11.5786 34.4036 1.08354 0 -41.0254 -1.42109e-014 -15.937 -20.7634 -5.53562 -3.55271e-015 -6.44418 14.8712 -4.96962e-016 -7.95139e-016 -0 -9.91412 0 1.42109e-014 -5.50795 -8.97519 -16.4944 0 -41.4279 0 5.85634 23.7363 7.53797 0 -41.0254 0 0.862548 -17.5048 -14.5631 0 -6.44418 14.8712 -1.59028e-015 1.59028e-015 -0 
0 0 0 0 0 -0 -59.3372 85.0444 -91.7544 1.50887 -1.09758 0.934293 0 8.12958 0 0.967301 9.03994 -3.28845 0 26.3907 1.42109e-014 -1.95496 1.07884 -3.19352 0 26.2823 2.3893 2.70714 17.0105 -1.58463 0 13.8798 -1.98282 -3.62356 4.83199 -1.99713 3.97789 23.5745 -0.27352 -2.87733 18.1277 5.79991 13.7626 -2.84217e-014 0 -26.0885 12.8678 -2.90363 26.1014 -7.10543e-015 0 -3.17511 12.1336 -6.4394 29.9599 7.10543e-015 0 -1.51229 11.9518 0.547377 -3.9517 23.5745 -0.27352 6.79824 14.1816 -3.77439 -13.7626 1.42109e-014 0 16.885 8.55668 4.85313 -26.1014 0 0 2.3354 12.8426 4.49481 -29.9599 2.84217e-014 -2.84217e-014 -4.9481 12.5113 5.73528 9.91412 0 0 7.89911 -11.6333 11.5382 0 -41.4279 0 -11.5816 34.8021 1.21393 3.55271e-015 -41.0254 1.42109e-014 -16.0185 -20.9792 -5.55073 3.55271e-015 -6.44418 14.8712 4.87022e-015 -7.95139e-016 3.18055e-015 -9.91412 -1.42109e-014 -1.42109e-014 -5.74183 -9.08379 -16.7743 1.42109e-014 -41.4279 -7.10543e-015 5.89928 24.0483 7.70458 1.42109e-014 -41.0254 1.42109e-014 0.745525 -17.5853 -14.4827 0 -6.44418 14.8712 7.95139e-016 0 -0 
0 0 0 0 0 -0 -59.2422 84.999 -91.7888 1.55844 -1.14263 0.901054 0 8.12958 -1.42109e-014 0.926291 9.1056 -3.266 0 26.3907 0 -1.95344 1.15773 -3.17247 0 26.2823 2.3893 2.70275 16.9499 -1.60554 0 13.8798 -1.98282 -3.58745 4.81012 -2.01749 3.97789 23.5745 -0.27352 -2.85048 18.0779 5.78646 13.7626 -2.84217e-014 0 -26.0321 12.8684 -2.90704 26.1014 0 0 -3.21008 12.1324 -6.41052 29.9599 0 0 -1.42834 11.9507 0.478485 -3.9517 23.5745 -0.27352 6.82178 14.2328 -3.78436 -13.7626 -1.42109e-014 0 16.8092 8.41579 4.89073 -26.1014 -1.42109e-014 -2.84217e-014 2.36268 12.8515 4.538 -29.9599 0 0 -5.03906 12.5179 5.6409 9.91412 -1.42109e-014 0 8.25297 -11.7253 11.8303 0 -41.4279 0 -11.6089 35.2317 0.708962 1.06581e-014 -41.0254 0 -15.4193 -21.3508 -4.63793 0 -6.44418 14.8712 4.37326e-015 2.38542e-015 -1.59028e-015 -9.91412 0 -1.42109e-014 -5.95357 -9.18365 -17.0278 -2.84217e-014 -41.4279 7.10543e-015 5.94936 24.343 7.81171 0 -41.0254 -1.42109e-014 0.688549 -17.6784 -14.3938 1.42109e-014 -6.44418 14.8712 -0 -1.59028e-015 -0 
0 0 0 0 0 -0 -59.143 84.9559 -91.8264 1.61388 -1.18642 0.856687 0 8.12958 0 0.892537 9.18424 -3.24155 0 26.3907 0 -1.97805 1.20157 -3.14907 0 26.2823 2.3893 2.6937 16.8456 -1.57998 0 13.8798 -1.98282 -3.5283 4.9253 -1.98413 3.97789 23.5745 -0.27352 -2.80377 18.0238 5.76382 13.7626 1.42109e-014 0 -25.9999 12.9174 -2.89099 26.1014 -7.10543e-015 -2.84217e-014 -3.21541 12.1282 -6.39005 29.9599 -1.42109e-014 0 -1.46516 11.9459 0.531559 -3.9517 23.5745 -0.27352 6.83036 14.2278 -3.77672 -13.7626 -1.42109e-014 0 16.7504 8.35282 4.91244 -26.1014 -1.42109e-014 0 2.38236 12.9116 4.55449 -29.9599 2.84217e-014 0 -4.99712 12.5787 5.64682 9.91412 0 0 8.6008 -11.7947 12.0726 3.55271e-015 -41.4279 -1.42109e-014 -11.6438 35.5246 0.913851 3.55271e-015 -41.0254 1.42109e-014 -15.1085 -21.5573 -4.36261 -3.55271e-015 -6.44418 14.8712 -3.97569e-016 0 -0 -9.91412 0 0 -6.17387 -9.295 -17.2348 1.42109e-014 -41.4279 0 6.0061 24.646 7.89933 -2.84217e-014 -41.0254 1.42109e-014 0.556093 -17.7372 -14.3111 0 -6.44418 14.8712 2.78299e-015 0 3.18055e-015 
0 0 0 0 0 -0 -59.0439 84.913 -91.8656 1.65667 -1.21411 0.799635 0 8.12958 0 0.854552 9.24299 -3.21477 -7.10543e-015 26.3907 0 -1.9636 1.26079 -3.12404 0 26.2823 2.3893 2.66988 16.7537 -1.58196 0 13.8798 -1.98282 -3.51018 4.98984 -1.98487 3.97789 23.5745 -0.27352 -2.79441 17.9766 5.77104 13.7626 1.42109e-014 2.84217e-014 -25.9579 12.9713 -2.89462 26.1014 7.10543e-015 0 -3.21047 12.1146 -6.37732 29.9599 0 0 -1.51716 11.9319 0.59238 -3.9517 23.5745 -0.27352 6.8049 14.1617 -3.7556 -13.7626 0 2.84217e-014 16.7233 8.43667 4.90039 -26.1014 1.42109e-014 0 2.30479 12.9569 4.62199 -29.9599 2.84217e-014 0 -4.80806 12.6334 5.68315 9.91412 2.84217e-014 1.42109e-014 8.96937 -11.8721 12.3038 -1.06581e-014 -41.4279 1.42109e-014 -11.6739 35.7875 1.4273 -3.55271e-015 -41.0254 0 -14.8022 -21.6565 -4.3117 0 -6.44418 14.8712 -1.98785e-016 7.95139e-016 1.59028e-015 -9.91412 0 1.42109e-014 -6.38158 -9.42735 -17.4184 -1.42109e-014 -41.4279 7.10543e-015 6.07507 24.9464 7.97944 1.42109e-014 -41.0254 0 0.471327 -17.7978 -14.2327 1.42109e-014 -6.44418 14.8712 -7.95139e-016 7.95139e-016 9.54166e-015 
0 0 0 0 0 -0 -58.9405 84.8714 -91.9062 1.71061 -1.23405 0.73351 0 8.12958 0 0.812653 9.31884 -3.18449 0 26.3907 -1.42109e-014 -1.96582 1.26797 -3.09645 0 26.2823 2.3893 2.67898 16.7122 -1.59209 0 13.8798 -1.98282 -3.5485 5.02345 -1.99921 3.97789 23.5745 -0.27352 -2.7927 17.9598 5.78567 13.7626 2.84217e-014 0 -25.8888 12.8656 -2.89876 26.1014 -7.10543e-015 0 -3.25508 12.1489 -6.36408 29.9599 2.13163e-014 0 -1.52141 11.964 0.60658 -3.9517 23.5745 -0.27352 6.7896 14.1691 -3.74387 -13.7626 -2.84217e-014 -1.42109e-014 16.6934 8.43331 4.93424 -26.1014 2.84217e-014 0 2.28331 13.0015 4.63035 -29.9599 0 0 -4.81859 12.6769 5.71585 9.91412 0 0 9.32181 -11.9302 12.4979 -1.06581e-014 -41.4279 0 -11.7013 36.0827 0.978706 -7.10543e-015 -41.0254 0 -14.0699 -22.066 -3.06481 0 -6.44418 14.8712 1.59028e-015 -7.95139e-016 -0 -9.91412 -1.42109e-014 -1.42109e-014 -6.60003 -9.58091 -17.565 1.42109e-014 -41.4279 0 6.14259 25.262 8.01577 0 -41.0254 -1.42109e-014 0.399672 -17.8598 -14.146 0 -6.44418 14.8712 1.59028e-015 -1.59028e-015 -3.18055e-015 
0 0 0 0 0 -0 -58.8381 84.8321 -91.9388 1.76395 -1.27531 0.666725 7.10543e-015 8.12958 0 0.767922 9.40086 -3.1536 0 26.3907 0 -1.96631 1.29289 -3.06823 0 26.2823 2.3893 2.68876 16.7048 -1.59134 0 13.8798 -1.98282 -3.57533 4.97029 -2.00286 3.97789 23.5745 -0.27352 -2.7807 17.9131 5.7899 13.7626 0 0 -25.8454 12.7607 -2.88393 26.1014 0 -2.84217e-014 -3.25248 12.2164 -6.33341 29.9599 -7.10543e-015 0 -1.65167 12.0336 0.480302 -3.9517 23.5745 -0.27352 6.77329 14.1357 -3.72411 -13.7626 -1.42109e-014 0 16.6604 8.35791 4.94287 -26.1014 0 0 2.30408 13.087 4.65589 -29.9599 1.42109e-014 0 -4.91497 12.7558 5.73119 9.91412 0 -1.42109e-014 9.66349 -11.9497 12.6157 0 -41.4279 0 -11.7586 36.2634 1.41532 7.10543e-015 -41.0254 0 -13.6676 -22.1828 -2.6895 1.06581e-014 -6.44418 14.8712 2.98177e-015 7.95139e-016 -0 -9.91412 1.42109e-014 0 -6.81123 -9.69548 -17.6878 -1.42109e-014 -41.4279 7.10543e-015 6.21039 25.5479 8.06472 1.42109e-014 -41.0254 0 0.357179 -17.9248 -14.0699 1.42109e-014 -6.44418 14.8712 4.41391e-032 7.95139e-016 -3.18055e-015 
0 0 0 0 0 -0 -58.7271 84.7898 -91.9731 1.82437 -1.32193 0.601012 7.10543e-015 8.12958 0 0.737007 9.50524 -3.12042 0 26.3907 -1.42109e-014 -2.01924 1.29057 -3.03635 1.42109e-014 26.2823 2.3893 2.73966 16.7109 -1.59872 -1.42109e-014 13.8798 -1.98282 -3.59176 4.917 -2.01407 3.97789 23.5745 -0.27352 -2.72352 17.8969 5.78208 13.7626 1.42109e-014 2.84217e-014 -25.7664 11.967 -2.89074 26.1014 2.13163e-014 0 -3.48964 12.6107 -6.2546 29.9599 0 0 -1.46597 12.4178 0.538796 -3.9517 23.5745 -0.27352 6.81687 14.0973 -3.73303 -13.7626 -2.84217e-014 -1.42109e-014 16.6019 8.45672 4.95496 -26.1014 0 0 2.27138 13.1015 4.69958 -29.9599 -1.42109e-014 0 -4.9576 12.7676 5.75857 9.91412 0 0 10.0705 -11.8986 12.6748 0 -41.4279 0 -11.9668 36.3073 2.14545 7.10543e-015 -41.0254 1.42109e-014 -12.4933 -22.4104 -2.35539 3.55271e-015 -6.44418 14.8712 3.37934e-015 -7.95139e-016 3.18055e-015 -9.91412 0 0 -7.047 -9.84459 -18.0105 2.84217e-014 -41.4279 -7.10543e-015 6.18139 25.9369 8.32795 1.42109e-014 -41.0254 -1.42109e-014 0.3115 -18.0026 -13.9973 0 -6.44418 14.8712 -3.97569e-016 7.95139e-016 -0 
